HIERARCHY
ROOT Hips
{
  OFFSET 57.8838 95.319 338.509
  CHANNELS 6 Xposition Yposition Zposition Zrotation Xrotation Yrotation
  JOINT LeftUpLeg
  {
    OFFSET 8.64259 1.95398 -2.38835
    CHANNELS 3 Zrotation Xrotation Yrotation
    JOINT LeftLeg
    {
      OFFSET 43.7702 0 0
      CHANNELS 3 Zrotation Xrotation Yrotation
      JOINT LeftFoot
      {
        OFFSET 40.6238 0 0
        CHANNELS 3 Zrotation Xrotation Yrotation
        JOINT LeftToeBase
        {
          OFFSET 12.7242 0 0
          CHANNELS 3 Zrotation Xrotation Yrotation
          End Site
          {
            OFFSET 0 0 0
          }
        }
      }
    }
  }
  JOINT RightUpLeg
  {
    OFFSET -8.2249 1.95398 -2.59336
    CHANNELS 3 Zrotation Xrotation Yrotation
    JOINT RightLeg
    {
      OFFSET 43.5653 0 0
      CHANNELS 3 Zrotation Xrotation Yrotation
      JOINT RightFoot
      {
        OFFSET 40.6238 0 0
        CHANNELS 3 Zrotation Xrotation Yrotation
        JOINT RightToeBase
        {
          OFFSET 12.7242 0 0
          CHANNELS 3 Zrotation Xrotation Yrotation
          End Site
          {
            OFFSET 0 0 0
          }
        }
      }
    }
  }
  JOINT Spine
  {
    OFFSET 0.165834 0.87714 6.61349
    CHANNELS 3 Zrotation Xrotation Yrotation
    JOINT Spine1
    {
      OFFSET 7.38963 1.71661e-005 0
      CHANNELS 3 Zrotation Xrotation Yrotation
      JOINT Spine2
      {
        OFFSET 11.9445 1.14441e-005 0
        CHANNELS 3 Zrotation Xrotation Yrotation
        JOINT Spine3
        {
          OFFSET 14.7254 4.19617e-005 0
          CHANNELS 3 Zrotation Xrotation Yrotation
          JOINT Spine4
          {
            OFFSET 10.9679 0 0
            CHANNELS 3 Zrotation Xrotation Yrotation
            JOINT RightShoulder
            {
              OFFSET 2.46616 -1.6653 3.69651
              CHANNELS 3 Zrotation Xrotation Yrotation
              JOINT RightArm
              {
                OFFSET 13.0012 0 0
                CHANNELS 3 Zrotation Xrotation Yrotation
                JOINT RightForeArm
                {
                  OFFSET 28.7848 1.62311e-005 0
                  CHANNELS 3 Zrotation Xrotation Yrotation
                  JOINT RightHand
                  {
                    OFFSET 26.5688 1.62095e-005 0
                    CHANNELS 3 Zrotation Xrotation Yrotation
                    End Site
                    {
                      OFFSET 0 0 0
                    }
                  }
                }
              }
            }
            JOINT LeftShoulder
            {
              OFFSET 2.38034 -1.29275 -3.7523
              CHANNELS 3 Zrotation Xrotation Yrotation
              JOINT LeftArm
              {
                OFFSET 16.3182 6.07031e-005 0
                CHANNELS 3 Zrotation Xrotation Yrotation
                JOINT LeftForeArm
                {
                  OFFSET 27.0901 0 0
                  CHANNELS 3 Zrotation Xrotation Yrotation
                  JOINT LeftHand
                  {
                    OFFSET 24.5451 1.51738e-005 0
                    CHANNELS 3 Zrotation Xrotation Yrotation
                    End Site
                    {
                      OFFSET 0 0 0
                    }
                  }
                }
              }
            }
            JOINT Neck
            {
              OFFSET 5.0226 -0.0266342 0
              CHANNELS 3 Zrotation Xrotation Yrotation
              JOINT Head
              {
                OFFSET 6.69364 2.86102e-005 0
                CHANNELS 3 Zrotation Xrotation Yrotation
                End Site
                {
                  OFFSET 0 0 0
                }
              }
            }
          }
        }
      }
    }
  }
}
MOTION
Frames:	17
Frame Time:	0.0416667
-326.468 73.6105 332.363 -79.3639 -6.81388 91.3964 0.831175 13.7474 -83.9397 155.028 -28.1583 -138.467 28.7722 -27.2475 -16.4677 118.011 -50.4367 -101.591 -57.4479 -13.8466 -63.7751 -63.9351 22.8697 -12.2907 118.237 -63.5043 -120.495 -87.4554 -49.118 135.999 0.531108 23.6415 -98.3735 -20.7333 -0.537055 -16.1446 -32.5032 -1.23779 -16.1071 -54.2771 4.27972 -15.5907 -34.2644 4.27973 -15.5907 122.363 -14.0422 -29.8691 30.3675 24.6603 3.26186 176.516 87.1357 179.953 21.8697 -4.27168 -26.8387 -59.6894 -34.3151 129.944 -68.8426 -21.3862 -23.2147 -160.098 35.7759 179.976 16.3923 -4.48066 -31.292 -67.4466 -13.2374 -5.35246 26.1771 -17.8053 -4.91862 
-326.822 73.4333 332.811 -79.345 -6.70744 91.3905 0.677796 13.8735 -83.9536 155.36 -28.4963 -138.172 27.1425 -28.1146 -17.923 108.787 -50.9318 -110.43 -57.5621 -13.3609 -63.6793 -63.8582 24.8266 -12.4454 121.605 -64.3222 -117.954 -84.891 -50.3843 138.378 0.590936 23.6245 -98.3946 -20.6932 -0.439564 -16.1521 -32.4632 -1.14069 -16.1187 -54.2385 4.37523 -15.5695 -34.2258 4.37523 -15.5695 122.397 -14.198 -29.9404 30.5209 24.1194 3.59564 176.778 86.3463 179.963 21.8806 -4.24962 -26.7175 -59.6662 -34.2341 130.019 -68.8657 -20.9462 -23.388 -160.349 35.9117 179.975 16.2924 -4.61399 -32.1701 -67.452 -12.9591 -5.71045 26.1856 -17.6887 -4.87105 
-327.874 72.8879 334.13 -79.2908 -6.40295 91.3718 0.215444 14.3214 -84.0623 156.74 -29.6764 -137.264 22.4072 -30.4019 -22.3324 79.289 -45.2166 -137.363 -57.8617 -11.9486 -63.4685 -63.5973 30.6556 -12.9532 132.431 -65.64 -109.706 -80.7109 -53.3825 143.227 0.764199 23.5739 -98.4549 -20.5733 -0.147103 -16.17 -32.3438 -0.84926 -16.149 -54.1238 4.66034 -15.5018 -34.1112 4.66033 -15.5018 122.512 -14.685 -30.1456 30.9961 22.5302 4.58033 177.548 83.9948 179.977 21.8875 -4.1675 -26.3006 -59.598 -33.9947 130.241 -68.923 -19.6359 -23.9114 -161.094 36.3784 179.975 15.9916 -5.01276 -34.8382 -67.4451 -12.1302 -6.76669 26.191 -17.3414 -4.74979 
-329.5 71.9816 336.121 -79.2152 -5.95798 91.339 -0.493521 15.1775 -84.3269 160.462 -32.2779 -135.402 15.8879 -33.0538 -29.1438 49.3367 -20.2893 -158.792 -58.2612 -9.83626 -63.3153 -63.0214 39.5239 -13.9653 148.293 -64.8172 -98.0862 -80.2108 -57.0023 146.442 1.02131 23.4949 -98.5429 -20.3872 0.305738 -16.1893 -32.1581 -0.397639 -16.1874 -53.9474 5.09932 -15.3887 -33.9347 5.09933 -15.3887 122.719 -15.4909 -30.4373 31.7873 20.1618 6.06234 178.67 80.3836 179.986 21.7965 -4.00097 -25.5524 -59.4929 -33.6406 130.579 -68.9876 -17.6353 -24.7464 -162.21 37.2806 179.975 15.5042 -5.61822 -39.0518 -67.3752 -10.8656 -8.35969 26.1518 -16.8128 -4.61141 
-331.593 70.7098 338.618 -79.1321 -5.41985 91.2893 -1.34555 16.565 -84.565 171.097 -38.252 -130.047 10.5052 -35.1639 -37.5194 33.4397 6.15133 -158.217 -58.7135 -7.19305 -63.3694 -61.8306 50.368 -15.864 162.42 -60.626 -89.6863 -84.3278 -60.8515 146.594 1.35115 23.3916 -98.6481 -20.1448 0.890524 -16.2021 -31.916 0.186095 -16.2249 -53.7199 5.66271 -15.2307 -33.7073 5.66273 -15.2307 123.034 -16.6169 -30.7691 32.9037 17.2609 7.91509 179.984 75.7593 179.99 21.4849 -3.72757 -24.4518 -59.3562 -33.2161 131.007 -69.0352 -15.1077 -25.8761 -163.575 38.797 179.975 14.7806 -6.33856 -44.5611 -67.192 -9.26968 -10.3563 26.0322 -16.1493 -4.50116 
-334.02 68.9756 341.493 -79.0548 -4.8395 91.222 -2.14345 19.4907 -83.6596 -129.388 -48.8484 -91.6828 22.3235 -34.4812 -34.5099 46.3095 -13.8548 -125.252 -59.1175 -4.25987 -63.6918 -59.537 61.8405 -19.4441 170.877 -54.134 -88.0621 -91.7523 -64.5302 143.99 1.7368 23.2685 -98.7595 -19.8577 1.57755 -16.1989 -31.6286 0.872619 -16.2508 -53.454 6.31923 -15.0271 -33.4413 6.31924 -15.0271 123.47 -18.0552 -31.0972 34.326 14.0713 10.0233 -178.673 70.3779 179.993 20.8417 -3.33957 -22.9989 -59.1926 -32.766 131.499 -69.0394 -12.2291 -27.2792 -165.067 41.1535 179.974 13.6961 -7.00515 -50.97 -66.8593 -7.45283 -12.6351 25.8118 -15.3999 -4.44534 
-336.744 66.6286 344.829 -78.9946 -4.28031 91.1407 -3.40046 22.1789 -83.5854 -47.8898 -16.8238 -48.9212 38.8922 -28.2264 -11.5796 105.91 -14.466 -60.3587 -59.2578 -1.55625 -64.2918 -64.7957 63.0823 -17.3385 174.254 -57.1127 -92.8279 -100.611 -67.7506 139.69 2.15895 23.1324 -98.8637 -19.5419 2.334 -16.1671 -31.3117 1.62975 -16.251 -53.1665 7.03383 -14.7752 -33.1538 7.03382 -14.7752 124.031 -19.7797 -31.3839 35.9867 10.8226 12.2825 -177.45 64.527 179.995 19.8025 -2.8522 -21.2139 -59.0085 -32.3303 132.025 -68.9737 -9.18462 -28.9098 -166.565 44.5638 179.972 12.0767 -7.35793 -57.7097 -66.3633 -5.53058 -15.0839 25.4891 -14.6151 -4.44934 
-339.501 64.5244 348.027 -78.9583 -3.82422 91.0551 -4.85982 23.2054 -84.9798 -27.6435 0.955375 -44.813 40.5846 -25.9255 -4.78316 116.663 3.99821 -42.2743 -59.4867 1.39764 -65.442 103.793 -46.6174 -170.876 12.4444 76.262 73.7825 -109.105 -70.483 135.011 2.5973 22.9936 -98.9459 -19.2199 3.1264 -16.0893 -30.9875 2.42477 -16.2068 -52.8803 7.76928 -14.4676 -32.8677 7.7693 -14.4676 124.708 -21.7425 -31.6061 37.7718 7.70451 14.5985 -176.455 58.5238 179.995 18.3856 -2.30307 -19.1281 -58.813 -31.9358 132.558 -68.8088 -6.14568 -30.6864 -167.977 49.0956 179.974 9.80602 -7.10407 -64.1357 -65.7104 -3.6093 -17.601 25.0753 -13.8384 -4.50659 
-342.062 62.7251 350.878 -78.9471 -3.5754 90.9823 -6.25809 24.3988 -86.6155 -20.6934 6.7126 -41.7362 41.7843 -25.1836 -4.0447 121.188 6.74221 -39.4845 -59.5521 4.22543 -67.0763 101.508 -52.6007 -172.408 7.74026 70.9919 73.0803 -115.635 -72.874 131.299 3.03251 22.8655 -98.9897 -18.9209 3.9238 -15.9429 -30.685 3.22758 -16.0945 -52.6255 8.48932 -14.0914 -32.6129 8.48932 -14.0913 125.479 -23.8808 -31.7569 39.5334 4.85268 16.8849 -175.737 52.6975 179.996 16.6997 -1.73997 -16.768 -58.6183 -31.5907 133.07 -68.5335 -3.23336 -32.4856 -170.299 54.6956 -178.711 6.94911 -6.06801 -69.6815 -64.9192 -1.77301 -20.0961 24.5803 -13.0989 -4.61305 
-344.232 61.3348 353.231 -78.9549 -3.66912 90.948 -7.5174 25.93 -89.014 -16.1221 9.94786 -36.7978 42.5366 -25.5346 -4.60428 125.891 5.90407 -40.6783 -59.0725 6.36548 -69.154 98.2341 -55.3135 -175.023 4.90601 67.1874 71.4874 -118.429 -75.1139 130.147 3.44771 22.7665 -98.9771 -18.6828 4.69912 -15.6981 -30.4419 4.01258 -15.883 -52.4404 9.15927 -13.6255 -32.4278 9.15926 -13.6255 126.316 -26.123 -31.8446 41.0989 2.35647 19.0595 -175.281 47.3818 179.997 14.9415 -1.20816 -14.1406 -58.4396 -31.2843 133.538 -68.0732 -0.562717 -34.1731 -173.197 60.7967 -176.771 3.75699 -4.34856 -73.9651 -64.0076 -0.0814756 -22.4881 24.0035 -12.4089 -4.77131 
-345.767 60.6173 354.808 -78.9648 -4.28056 90.9889 -8.39601 28.2892 -92.9221 -11.7305 12.5026 -28.7109 42.2263 -27.5419 -6.31571 131.205 2.43123 -44.1068 -57.7235 7.49896 -71.7573 94.9762 -63.6971 -178.025 -10.0014 56.0623 80.1829 -114.165 -77.3066 134.606 3.82801 22.7196 -98.8872 -18.5528 5.4305 -15.3155 -30.305 4.75952 -15.5324 -52.3731 9.74653 -13.0385 -32.3604 9.74652 -13.0385 127.181 -28.3959 -31.8904 42.2769 0.270332 21.0375 -175.018 42.9035 179.997 13.3903 -0.735386 -11.2184 -58.2952 -30.9863 133.944 -67.1865 1.69592 -35.6349 -177.308 66.8811 -173.861 0.569546 -2.24378 -76.8813 -62.9838 1.42751 -24.7069 23.3323 -11.7631 -4.98364 
-346.429 60.8853 355.331 -78.9451 -5.61307 91.1523 -8.00025 34.3191 -102.009 -3.95387 15.0017 -10.0281 37.0674 -33.9049 -13.1286 136.271 -3.65485 -49.0517 -55.1671 7.35662 -75.0474 -95.8995 80.2878 8.8287 -177.337 -32.2769 -105.775 -94.0225 -78.8652 152.722 4.16195 22.7501 -98.6973 -18.5832 6.10156 -14.7484 -30.3262 5.45404 -14.9951 -52.4763 10.2215 -12.2902 -32.4637 10.2215 -12.2902 128.035 -30.6367 -31.9256 42.8697 -1.37121 22.7353 -174.838 39.5553 179.997 12.3907 -0.315513 -7.93354 -58.2051 -30.6511 134.273 -65.9775 3.65875 -36.6198 176.134 72.5292 -168.559 -2.3095 -0.138133 -78.6052 -61.8384 2.73389 -26.6997 22.5436 -11.1406 -5.24446 
-346.206 62.2202 354.757 -78.8483 -7.86367 91.4937 -7.2078 36.9251 -104.682 -1.90325 18.066 -4.44027 36.9888 -34.4039 -14.4398 139.583 -12.0532 -55.1832 -51.0619 5.57996 -79.3783 -94.5901 56.3314 8.44305 -172.522 -42.4485 -98.1378 -51.1813 -75.3593 -170.711 4.43963 22.8807 -98.3848 -18.8217 6.69795 -13.9484 -30.5532 6.08393 -14.2225 -52.7972 10.5558 -11.3387 -32.7846 10.5558 -11.3387 128.842 -32.8006 -31.9849 42.6792 -2.53371 24.0703 -174.622 37.5894 179.997 12.3474 0.104706 -4.19446 -58.1903 -30.2238 134.514 -64.2381 5.27884 -36.9757 164.219 77.3573 -158.187 -4.67586 1.67442 -79.4442 -60.7583 3.68952 -28.4745 22.0471 -10.7196 -5.00535 
-345.485 64.1721 353.441 -78.6089 -11.1801 92.0819 -6.16193 37.8835 -104.422 -2.05313 21.0938 -4.27935 38.9154 -32.733 -13.0994 139.516 -21.7673 -62.6698 -45.0956 -0.59196 -85.1956 -90.9883 4.68443 9.15875 -178.661 -62.4973 -87.0866 -3.04777 -47.2522 -147.433 4.64972 23.1261 -97.9287 -19.3003 7.19976 -12.8748 -31.0181 6.63119 -13.1729 -53.365 10.7179 -10.1516 -33.3524 10.7179 -10.1516 129.569 -34.8636 -32.1054 41.5036 -3.16106 24.957 -174.256 37.2448 179.997 13.7974 0.653477 0.0807315 -58.2745 -29.644 134.656 -61.856 6.59445 -36.5003 141.536 80.6716 -137.456 -6.39317 3.01138 -79.6988 -54.5135 7.62794 -28.8967 12.1396 -5.43745 -17.2561 
-344.233 67.5354 351.239 -78.1451 -15.5976 92.9934 -4.33182 38.7899 -104.171 -2.12607 23.9323 -3.72617 39.749 -31.0176 -12.4133 135.077 -31.0614 -71.9269 -38.9426 -8.49112 -92.5712 -62.2386 -61.2767 34.9029 114.471 -37.2604 -136.353 -72.8937 -31.8281 141.576 4.77512 23.4857 -97.3154 -20.0202 7.57183 -11.5094 -31.723 7.06161 -11.8266 -54.1744 10.6682 -8.72333 -34.1617 10.6682 -8.72334 130.192 -36.8287 -32.3247 39.1355 -3.15218 25.3131 -173.648 38.7896 179.997 17.6322 1.60927 4.85495 -58.4874 -28.8472 134.674 -58.8777 7.73209 -34.9342 108.893 81.1303 -107.162 -7.344 3.73874 -79.5781 -48.0719 11.0371 -29.1011 4.07881 -0.496819 -29.1648 
-343.185 71.3248 349.192 -77.3717 -20.9709 94.2922 -1.88079 39.268 -103.572 -2.22614 26.4338 -3.1571 39.5218 -29.2046 -12.4197 127.297 -37.9202 -82.3106 -33.5949 -15.8093 -103.382 -1.96722 -62.448 87.2022 105.786 20.5926 -139.315 111.402 15.7977 127.047 4.7883 23.9374 -96.5457 -20.9381 7.75561 -9.87848 -32.6261 7.31564 -10.2071 -55.1712 10.358 -7.0992 -35.1585 10.358 -7.09922 130.705 -38.7433 -32.6777 35.378 -2.3499 25.0726 -172.882 42.6733 179.997 23.3437 3.03235 9.04096 -58.8662 -27.7732 134.529 -55.3527 8.68613 -32.0577 85.3996 78.6662 -86.535 -7.39085 3.74273 -79.0998 -46.5294 10.5538 -29.7325 3.285 -0.30464 -28.0938 
-342.06 73.8422 347.737 -76.224 -26.9702 95.9997 1.25237 39.6729 -102.804 -2.33271 28.456 -2.60031 39.0024 -27.17 -12.7726 120.736 -41.3877 -90.1507 -25.2314 -28.5965 -91.8389 -41.0235 -60.8455 39.5884 86.1634 21.1101 -131.983 127.451 4.82541 112.07 4.65095 24.4404 -95.6413 -21.9696 7.67018 -8.06753 -33.6451 7.30898 -8.39579 -56.2582 9.73551 -5.38762 -36.2456 9.73552 -5.38763 131.118 -40.6925 -33.1915 30.1032 -0.459432 24.1663 -172.377 48.9187 179.996 29.0978 4.31095 10.9254 -59.4546 -26.382 134.147 -51.9266 9.55374 -27.6754 77.0452 75.094 -81.1166 -6.34661 2.8846 -77.9774 -44.7791 9.5655 -29.6143 2.29968 -0.346008 -26.9887 
